# xmcd
#
# Track frame offsets:
# 150
# 16105
# 44894
# 81699
# 107570
# 118536
# 143307
# 158118
# 180804
# 197992
# 202395
# 224170
# 243662
# 259348
# 285240
# 296114
#
# Disc length: 4226 seconds
#
#
# Revision: 0
# Processed by: cddbd v1.5.1PL0 Copyright (c) Steve Scherf et al.
# Submitted via: FreeRIP 2.70 
#
DISCID=fa108010
DTITLE=Tindersticks - Tindersticks Second Album
DYEAR=1995
DGENRE=Blues
TTITLE0=El Diablo En El Ojo
TTITLE1=A Night In
TTITLE2=My Sister
TTITLE3=Tiny Tears
TTITLE4=Snowy In F# Minor
TTITLE5=Seaweed
TTITLE6=Vertrauen II
TTITLE7=Talk To Me
TTITLE8=No More Affairs
TTITLE9=Singing
TTITLE10=Travelling Light
TTITLE11=Cherry Blossoms
TTITLE12=She's Gone
TTITLE13=Mistakes
TTITLE14=Vertrauen III
TTITLE15=Sleepy Song
EXTD=
EXTT0=
EXTT1=
EXTT2=
EXTT3=
EXTT4=
EXTT5=
EXTT6=
EXTT7=
EXTT8=
EXTT9=
EXTT10=
EXTT11=
EXTT12=
EXTT13=
EXTT14=
EXTT15=
PLAYORDER=
